<svg viewBox="0 0 1024 1024" version="1.1" xmlns="http://www.w3.org/2000/svg">
  <path d="M512 1021.72444445c-281.07603513 0-509.72444445-228.64840931-509.72444445-509.72444445S230.92396487 2.27555555 512 2.27555555 1021.72444445 230.92396487 1021.72444445 512 793.07603513 1021.72444445 512 1021.72444445zM512 75.42018617c-240.73610126 0-436.57981383 195.84371143-436.57981383 436.57981383 0 240.69891527 195.84371143 436.57981383 436.57981383 436.57981383 240.69891527 0 436.57981383-195.87894158 436.57981383-436.57981383C948.57981383 271.26389874 752.69891527 75.42018617 512 75.42018617z"></path>
  <path d="M563.26308978 513.56576313l157.43162481-155.72102827c14.30911886-14.12709945 14.41872213-37.17317746 0.29162383-51.48229632s-37.21036345-14.41872213-51.48229632-0.29162382l-157.65083136 155.90304768-155.24738503-155.72102827c-14.23670272-14.23670272-37.2455936-14.30911886-51.48229632-0.07241614-14.23670272 14.19951559-14.27193173 37.2455936-0.07241614 51.48229632l155.02817848 155.50182172-156.30427477 154.62890838c-14.30911886 14.16232846-14.41872213 37.17317746-0.29162382 51.48229632 7.13596587 7.20838315 16.49335865 10.81355264 25.88598158 10.81355264 9.24778951 0 18.49557902-3.53079637 25.59631474-10.52192882l156.52152433-154.81092778 157.79566479 158.30649514c7.10073685 7.13596587 16.42094251 10.70394937 25.77833529 10.70394937 9.32020565 0 18.60518229-3.5679835 25.70396103-10.63153209 14.23670272-14.19951559 14.27193173-37.21036345 0.07241614-51.48229632L563.26308978 513.56576313z"></path>
</svg>