<?xml version="1.0" standalone="no"?><!DOCTYPE svg PUBLIC "-//W3C//DTD SVG 1.1//EN" "http://www.w3.org/Graphics/SVG/1.1/DTD/svg11.dtd"><svg t="1665463263167" class="icon" viewBox="0 0 1024 1024" version="1.1" xmlns="http://www.w3.org/2000/svg" p-id="1734" xmlns:xlink="http://www.w3.org/1999/xlink" width="32" height="32"><path d="M56.88888853 694.0444448v136.53333333a136.53333333 136.53333333 0 0 0 136.53333334 136.53333334h136.53333333a45.51111147 45.51111147 0 0 0 0-91.02222294H193.42222187a45.51111147 45.51111147 0 0 1-45.5111104-45.5111104v-136.53333333a45.51111147 45.51111147 0 0 0-91.02222294 0z m637.15555627 273.06666667h136.53333333a136.53333333 136.53333333 0 0 0 136.53333334-136.53333334v-136.53333333a45.51111147 45.51111147 0 0 0-91.02222294 0v136.53333333a45.51111147 45.51111147 0 0 1-45.5111104 45.5111104h-136.53333333a45.51111147 45.51111147 0 0 0 0 91.02222294z m273.06666667-637.15555627V193.42222187a136.53333333 136.53333333 0 0 0-136.53333334-136.53333334h-136.53333333a45.51111147 45.51111147 0 0 0 0 91.02222294h136.53333333a45.51111147 45.51111147 0 0 1 45.5111104 45.5111104v136.53333333a45.51111147 45.51111147 0 0 0 91.02222294 0zM329.9555552 56.88888853H193.42222187a136.53333333 136.53333333 0 0 0-136.53333334 136.53333334v136.53333333a45.51111147 45.51111147 0 0 0 91.02222294 0V193.42222187a45.51111147 45.51111147 0 0 1 45.5111104-45.5111104h136.53333333a45.51111147 45.51111147 0 0 0 0-91.02222294z" p-id="1735"></path></svg>