<?xml version="1.0" standalone="no"?><!DOCTYPE svg PUBLIC "-//W3C//DTD SVG 1.1//EN" "http://www.w3.org/Graphics/SVG/1.1/DTD/svg11.dtd"><svg t="1665466925626" class="icon" viewBox="0 0 1024 1024" version="1.1" xmlns="http://www.w3.org/2000/svg" p-id="1736" xmlns:xlink="http://www.w3.org/1999/xlink" width="32" height="32"><path d="M512 12C236.31 12 12 236.31 12 512s224.31 500 500 500 500-224.31 500-500S787.69 12 512 12z m0 944.44C266.94 956.44 67.56 757.06 67.56 512S266.94 67.56 512 67.56 956.44 266.94 956.44 512 757.06 956.44 512 956.44z" p-id="1737"></path><path d="M749.63 488.89L416.3 266.67a27.78 27.78 0 0 0-43.19 23.11v444.44a27.78 27.78 0 0 0 43.19 23.11l333.33-222.22a27.78 27.78 0 0 0 0-46.22z m-321 193.44V341.67L684.15 512z" p-id="1738"></path></svg>