<?xml version="1.0" standalone="no"?><!DOCTYPE svg PUBLIC "-//W3C//DTD SVG 1.1//EN" "http://www.w3.org/Graphics/SVG/1.1/DTD/svg11.dtd"><svg t="1665458262149" class="icon" viewBox="0 0 1024 1024" version="1.1" xmlns="http://www.w3.org/2000/svg" p-id="1644" xmlns:xlink="http://www.w3.org/1999/xlink" width="32" height="32"><path d="M516.55839289 644.67399111v217.71423289L425.95365925 780.04102637 277.57165985 645.11696592a45.46256592 45.46256592 0 0 0-30.54584415-11.78919822l-138.33071881 0.04369067-0.44782934-291.05993955h105.94865304l-90.64235614-90.64235615h-15.3062969c-49.88867318 0.19903525-90.2224403 40.72091497-90.1945268 90.59866548v291.10363022c0 49.96634548 40.47212089 90.59866548 90.1945268 90.59866548h121.27679527L425.95365925 902.55572385l72.06775467 65.49352297c18.17653097 16.50050845 35.39550815 21.10137837 48.94811023 21.10137836 10.46270103 0 18.80640475-2.74280297 23.61116444-4.88850015 11.05980682-4.88850015 36.70622815-20.92418845 36.70622816-64.2993114V735.40494222l-90.72852386-90.73095111zM918.12173748 546.86636563c0 88.342528-22.64996978 152.06536533-47.47233659 195.68442785l63.29806696 63.30413511c36.10912237-55.672832 71.01189689-140.10019082 71.0118969-259.03225362 0-241.58025955-149.30071703-341.37945125-155.68804978-345.49365572a42.860544 42.860544 0 0 0-32.59687822-5.88367643 42.958848 42.958848 0 0 0-27.05059083 19.11102577c-12.97248711 20.32708267-7.38736355 47.31213748 12.60233008 60.82590341 4.66640592 3.16150518 115.89556148 80.11290548 115.89556148 271.48409363z" p-id="1645"></path><path d="M676.68589985 410.21652385c2.7646483 1.43815111 67.79941925 35.70012918 67.79941926 133.42037333 0 25.19373748-3.65545245 46.11792592-9.05731793 63.67914667l66.28359585 66.289664c16.6667757-32.5592557 29.56765867-74.65035852 29.56765867-129.92512 0-155.22929778-112.40152178-210.65819022-117.15652267-212.95801837v0.04369067a42.94185718 42.94185718 0 0 0-32.92334458-1.57043674 42.90059378 42.90059378 0 0 0-24.31992415 22.22884029c-10.28551111 21.74338845-1.53766875 47.710208 19.80643555 58.79186015zM397.38239052 269.27650133l28.53364623-25.94497422 90.64235614-82.39210193V388.4525037l90.73095111 90.73095112V103.38668089c0-29.9705837-13.7746963-53.90336-36.84458192-64.14396681-11.09864297-4.88850015-40.38352592-13.09385008-72.51072949 16.14612859l-71.9791597 65.42677333-92.72737186 84.29385955 64.15488949 64.16702578zM897.04341808 942.34821215c-11.59016297 0-23.18032592-4.42368-32.02768593-13.27104l-770.0844089-770.0844089c-17.69472-17.69472-17.69472-46.36065185 0-64.05537184 17.69472-17.69472 46.36065185-17.69472 64.05537186 0l770.08440889 770.08319526c17.69472 17.69472 17.69472 46.36065185 0 64.05537185-8.84736 8.84857363-20.43752297 13.27225363-32.02768592 13.27225363z" p-id="1646"></path></svg>